<?xml version="1.0" encoding="utf-8"?>
<!-- Generator: Adobe Illustrator 26.0.1, SVG Export Plug-In . SVG Version: 6.00 Build 0)  -->
<svg version="1.1" id="Ebene_1" xmlns="http://www.w3.org/2000/svg" xmlns:xlink="http://www.w3.org/1999/xlink" x="0px" y="0px"
	 viewBox="0 0 172 84" style="enable-background:new 0 0 172 84;" xml:space="preserve">
<style type="text/css">
	.st0{fill:#ED1A33;}
</style>
<path class="st0" d="M107.8,11c0,2.6-1.5,4-2.8,4.6c-2.4,1.1-3,1.8-3,3.4h-3.9c0-2.7,0.8-4.3,4-5.8c1.4-0.6,1.8-1.1,1.8-2.1
	c0-1.3-1-2.1-3.4-2.1c-2.1,0-3.7,1-4.9,2.4l-2.5-3c1.7-1.8,4.2-3.3,7.5-3.3C104.8,5.2,107.8,7.1,107.8,11 M102.4,23.2
	c0,1.3-1.1,2.4-2.4,2.4c-1.3,0-2.4-1.1-2.4-2.4s1.1-2.4,2.4-2.4C101.3,20.8,102.4,21.9,102.4,23.2 M86,8.9c4.6,0,8.3,3.7,8.3,8.3
	c0,4.6-3.7,8.3-8.3,8.3c-4.6,0-8.3-3.7-8.3-8.3S81.4,8.9,86,8.9 M73.2,34.2c0-3.9,4.6-6.7,9.7-6.7h6.2c5.1,0,9.7,2.7,9.7,6.7l0,7
	H73.2C73.2,41.2,73.2,34.2,73.2,34.2z"/>
<g>
	<path class="st0" d="M134.6,49.1c1.2,0,2.2,0.9,2.3,2.1c0,0.1,0,0.1,0,0.2v11.1h11.6v2.3H134V49.1L134.6,49.1"/>
	<path class="st0" d="M151.7,49.1H164v0c1.5,0,2.9,0,4.2,0c0.4,0,0.8,0.1,1.2,0.2c1.5,0.5,2.6,2,2.6,3.6c0,2.7,0,5.4,0,8.1
		c0,0,0,0.1,0,0.1c-0.1,2-1.9,3.6-3.8,3.7c-1.3,0-2.7,0-4.2,0v0h-2.1h-10.1c0-1.3,1-2.3,2.3-2.3h1.7h8.2v0c2,0,3.6,0,3.6,0
		c0.8,0,1.5-0.7,1.5-1.5c0-2.7,0-5.4,0-8.1c0-0.8-0.7-1.5-1.5-1.5c0,0-1.6,0-3.6,0v0h-9.3v6.7c0,1.3-1,2.3-2.3,2.3h-0.6V49.1"/>
	<path class="st0" d="M106.6,61c0,1.6-1.1,3.1-2.6,3.7c-0.4,0.1-0.8,0.2-1.2,0.2c-1.2,0-14.3,0-14.3,0v-7c0-1.3,1-2.3,2.3-2.3
		c0,0,9.8,0,10.5,0c0.8,0,1.5-0.7,1.5-1.5c0-0.2,0-0.6,0-1c0-0.8-0.7-1.5-1.5-1.5c-0.9,0-9.9,0-9.9,0v0.2c0,1.3-1,2.3-2.3,2.3h-0.6
		v-4.8c0,0,12.5,0,13.5,0c2,0,3.8,1.7,3.9,3.7c0,0,0,0.1,0,0.1c0,0.5,0,0.7,0,1c0,0.1,0,0.2,0,0.3c-0.1,0.8-0.6,1.8-1.5,2.1
		c1.4,0.3,2.1,1.4,2.3,2.4c0,0.1,0,0.3,0,0.4c0,0,0,0.1,0,0.1v0L106.6,61 M102,57.9c-1.1,0-10.6,0-10.6,0v4.7c0,0,9.5,0,10.6,0
		c0.8,0,1.5-0.7,1.5-1.5c0-0.4,0-1.1,0-1.6C103.5,58.6,102.8,57.9,102,57.9"/>
	<path class="st0" d="M121,49.1l10.4,15.8h-2h-0.1c-0.8,0-1.5-0.4-1.9-1c0,0-0.1-0.1-0.1-0.2l-1.6-2.5h-4.5h-0.9
		c-1.3,0-2.3-1-2.3-2.3h6.2l-4.3-6.7l-8.3,12.7h-3.3l10.5-15.8L121,49.1"/>
	<path class="st0" d="M80.2,49.1c1.9,0,3.7,1.6,3.8,3.7c0,0,0,0.1,0,0.1c0,2.7,0,5.4,0,8.1c0,1.6-1.1,3.1-2.6,3.6
		c-0.4,0.1-0.8,0.2-1.2,0.2c-3.8,0-8.9,0-12.7,0c-1.6,0-3.1-1.1-3.6-2.6c-0.1-0.4-0.2-0.8-0.2-1.2c0-2.7,0-5.4,0-8.1
		c0-1.6,1.1-3.1,2.6-3.6c0.4-0.1,0.8-0.2,1.2-0.2C71.3,49.1,76.5,49.1,80.2,49.1 M68.3,51.4c-0.8,0-1.5,0.7-1.5,1.5
		c0,2.7,0,5.4,0,8.1c0,0.8,0.7,1.5,1.5,1.5c0,0,11.3,0,11.3,0c0.8,0,1.5-0.7,1.5-1.5c0-2.7,0-5.4,0-8.1c0-0.8-0.7-1.5-1.5-1.5
		C79.6,51.4,68.3,51.5,68.3,51.4"/>
	<path class="st0" d="M44.4,53c1.3,0,2.3,1,2.3,2.3h12.5v2.3H46.7v4.8H60v2.3H43.8V53.1L44.4,53 M43.8,49.1H60v2.3H47h-0.9
		C44.8,51.4,43.8,50.4,43.8,49.1"/>
	<path class="st0" d="M39.4,49.1v15.7h-3v-7.2H24.3v7.2h-3V49.1h3v6.3h12.2v-4c0,0,0,0,0,0c0-1.3,1.1-2.3,2.3-2.3H39.4"/>
	<path class="st0" d="M0,51.5L0,51.5c0-0.1,0-0.1,0-0.2c0.1-1.2,1.1-2.1,2.3-2.1h6.6c1.3,0,2.3,1,2.3,2.3v13.4h-3V51.5H3.2L0,51.5
		 M18.3,51.5h-5.2v-2.3h5.2L18.3,51.5"/>
</g>
<g id="Software">
	<polygon points="115.9,69.9 115.9,77.8 121.2,77.8 121.2,76.4 117.4,76.4 117.4,74.5 120.8,74.5 120.8,73.1 117.4,73.1 117.4,71.3 
		121.2,71.3 121.2,69.9 	"/>
	<path d="M111,73c-0.2,0.2-0.5,0.3-0.9,0.3h-1.3v-1.9h1.3c0.4,0,0.7,0.1,1,0.3c0.2,0.2,0.3,0.4,0.3,0.7
		C111.3,72.6,111.2,72.8,111,73 M111.4,74.4c0.4-0.2,0.7-0.5,0.9-0.8c0.3-0.4,0.4-0.8,0.4-1.3c0-0.7-0.3-1.3-0.7-1.8
		c-0.5-0.4-1.1-0.7-1.9-0.7h-2.9v7.9h1.5v-3h1.3l1.5,3h1.7l-0.1-0.2C112.3,76.1,111.8,75.1,111.4,74.4"/>
	<path d="M100.2,74.3l0.9-2.4l0.9,2.4H100.2z M101.8,70L101.8,70l-1.4-0.1l0,0.1c-0.5,1.1-1.5,3.7-3.1,7.6l-0.1,0.2h1.6l0.5-1.1
		c0.2-0.4,0.3-0.7,0.4-0.9h2.9c0.1,0.2,0.8,2,0.8,2h1.6l-0.1-0.2C103.8,74.7,102.7,72.2,101.8,70"/>
	<polygon points="95,69.9 93.2,75.2 91.4,69.9 90,69.9 88.2,75.1 86.4,69.9 84.7,69.9 87.5,77.8 88.9,77.8 90.7,72.6 92.5,77.8 
		93.8,77.8 96.6,69.9 	"/>
	<polygon points="76.7,69.9 76.7,71.2 79.1,71.2 79.1,77.8 80.5,77.8 80.5,71.2 82.9,71.2 82.9,69.9 	"/>
	<polygon points="69.5,69.9 69.5,77.8 71,77.8 71,74.5 74.4,74.5 74.4,73.1 71,73.1 71,71.3 74.8,71.3 74.8,69.9 	"/>
	<path d="M64.8,75.7c-0.4,0.4-1,0.6-1.8,0.6c-0.7,0-1.3-0.2-1.8-0.6c-0.5-0.5-0.7-1.1-0.7-1.9c0-0.8,0.2-1.4,0.7-1.9
		c0.4-0.4,1-0.6,1.8-0.6c0.7,0,1.3,0.2,1.8,0.6c0.5,0.5,0.7,1.1,0.7,1.9C65.5,74.6,65.3,75.3,64.8,75.7 M65.8,70.9
		c-0.4-0.3-0.8-0.6-1.3-0.8c-0.5-0.2-1-0.3-1.5-0.3c-0.5,0-1,0.1-1.5,0.3c-0.5,0.2-0.9,0.5-1.3,0.8c-0.4,0.3-0.6,0.8-0.9,1.3
		c-0.2,0.5-0.3,1.1-0.3,1.6c0,0.6,0.1,1.1,0.3,1.6c0.2,0.5,0.5,0.9,0.9,1.3c0.4,0.3,0.8,0.6,1.3,0.8c0.5,0.2,1,0.3,1.5,0.3
		c0.5,0,1-0.1,1.5-0.3c0.5-0.2,0.9-0.5,1.3-0.8c0.4-0.3,0.6-0.8,0.9-1.3c0.2-0.5,0.3-1.1,0.3-1.6c0-0.6-0.1-1.1-0.3-1.6
		C66.5,71.7,66.2,71.2,65.8,70.9"/>
	<path d="M55.9,73.3c-0.4-0.1-0.9-0.3-1.6-0.4c-0.8-0.2-1.2-0.3-1.3-0.4c-0.2-0.1-0.2-0.2-0.3-0.3c0-0.1,0-0.3,0-0.4
		c0.1-0.1,0.1-0.3,0.3-0.4c0.2-0.2,0.5-0.3,1-0.3h0c0.4,0,0.7,0.1,1.1,0.2c0.4,0.1,0.7,0.3,1,0.5l0.1,0.1l0.7-1.3l-0.1-0.1
		c-0.8-0.6-1.8-1-2.9-1l-0.1,0c-0.7,0-1.4,0.2-1.8,0.6c-0.5,0.4-0.8,1-0.8,1.6c-0.1,0.9,0.3,1.6,1.2,1.9c0.4,0.2,0.9,0.3,1.7,0.5
		c0.7,0.1,1.2,0.2,1.4,0.3c0.2,0.1,0.3,0.2,0.4,0.3c0.1,0.2,0.1,0.3,0.1,0.5c-0.1,0.6-0.6,0.8-1.5,0.8c-0.9,0-1.8-0.3-2.5-0.9
		l-0.2-0.1l-0.1,0.2c-0.1,0.1-0.2,0.3-0.3,0.5c-0.1,0.2-0.2,0.4-0.3,0.5l-0.1,0.1l0.1,0.1c1,0.7,2.1,1.1,3.3,1.1
		c0.7,0,1.3-0.1,1.8-0.4c0.3-0.2,0.6-0.4,0.8-0.7c0.2-0.3,0.4-0.6,0.4-1c0.1-0.6,0.1-1.1-0.2-1.6C56.8,73.9,56.4,73.5,55.9,73.3"/>
</g>
</svg>
