<?xml version="1.0" encoding="UTF-8" standalone="no"?><!DOCTYPE svg PUBLIC "-//W3C//DTD SVG 1.1//EN" "http://www.w3.org/Graphics/SVG/1.1/DTD/svg11.dtd"><svg width="100%" height="100%" viewBox="0 0 10 10" version="1.1" xmlns="http://www.w3.org/2000/svg" xmlns:xlink="http://www.w3.org/1999/xlink" xml:space="preserve" style="fill-rule:evenodd;clip-rule:evenodd;stroke-linejoin:round;stroke-miterlimit:1.41421;"><path d="M9.921,1.389c0,-0.767 -0.622,-1.389 -1.389,-1.389l-7.143,0c-0.767,0 -1.389,0.622 -1.389,1.389l0,7.143c0,0.767 0.622,1.389 1.389,1.389l7.143,0c0.767,0 1.389,-0.622 1.389,-1.389l0,-7.143Z" style="fill:#00ade6;"/><path d="M3.645,3.672l0,0.001c-0.07,0 -0.88,0 -0.997,0l-0.801,-0.801l0.801,-0.8l2.451,0l0,0.001c0.008,0 0.017,0 0.033,0c0.074,0.002 0.148,0.007 0.222,0.018c0.144,0.022 0.286,0.062 0.42,0.12c0.302,0.129 0.564,0.345 0.748,0.618c0.106,0.157 0.186,0.332 0.235,0.515c0.042,0.159 0.062,0.325 0.058,0.49c-0.005,0.185 -0.04,0.368 -0.104,0.542c-0.07,0.193 -0.175,0.373 -0.309,0.529c-0.095,0.111 -0.205,0.21 -0.326,0.294c-0.038,0.027 -0.078,0.052 -0.119,0.075l0,0l-1.301,0.751l0.001,0l-0.002,0.001l-0.023,0.013c-0.006,0.005 -0.012,0.01 -0.017,0.016c-0.017,0.019 -0.028,0.042 -0.03,0.068c-0.001,0.011 0,0.022 0.002,0.033c0.003,0.016 0.009,0.03 0.018,0.043c0.022,0.031 0.06,0.05 0.098,0.05l0.002,-0.001l0.011,0l0,0.001c0,0 2.77,-0.001 2.887,-0.001l0.8,0.801l-0.8,0.8l-2.903,0l0,-0.001c-0.158,0 -0.316,-0.021 -0.469,-0.065c-0.374,-0.107 -0.707,-0.342 -0.932,-0.66c-0.094,-0.133 -0.169,-0.28 -0.222,-0.435c-0.058,-0.17 -0.09,-0.348 -0.092,-0.528c-0.004,-0.197 0.028,-0.394 0.091,-0.58c0.07,-0.206 0.18,-0.398 0.321,-0.563c0.096,-0.112 0.206,-0.211 0.326,-0.295c0.015,-0.01 0.03,-0.02 0.045,-0.03l-0.001,-0.001l0.034,-0.019c0.026,-0.016 0.052,-0.031 0.079,-0.046l1.263,-0.729l-0.001,-0.001c0.009,-0.004 0.017,-0.008 0.025,-0.014c0.006,-0.004 0.012,-0.01 0.018,-0.016c0.016,-0.019 0.026,-0.041 0.03,-0.066c0.001,-0.012 0,-0.024 -0.002,-0.035c-0.004,-0.015 -0.009,-0.029 -0.018,-0.042c-0.021,-0.032 -0.06,-0.051 -0.098,-0.05l-0.002,0l-0.011,0l0,-0.001l-1.439,0Z" style="fill:#fff;"/></svg>