<?xml version="1.0" encoding="UTF-8" standalone="no"?><!DOCTYPE svg PUBLIC "-//W3C//DTD SVG 1.1//EN" "http://www.w3.org/Graphics/SVG/1.1/DTD/svg11.dtd"><svg width="100%" height="100%" viewBox="0 0 10 10" version="1.1" xmlns="http://www.w3.org/2000/svg" xmlns:xlink="http://www.w3.org/1999/xlink" xml:space="preserve" style="fill-rule:evenodd;clip-rule:evenodd;stroke-linejoin:round;stroke-miterlimit:1.41421;"><path d="M0,1.136c0,-0.627 0.509,-1.136 1.136,-1.136l7.649,0c0.627,0 1.136,0.509 1.136,1.136l0,7.649c0,0.627 -0.509,1.136 -1.136,1.136l-7.649,0c-0.627,0 -1.136,-0.509 -1.136,-1.136l0,-7.649Z" style="fill:#616367;fill-rule:nonzero;"/><path d="M5.715,5.712l0,-0.696l0.801,-0.8l0.8,0.8l-0.001,0.696c0,0.141 -0.012,0.281 -0.037,0.419c-0.036,0.199 -0.098,0.394 -0.184,0.577c-0.133,0.281 -0.322,0.535 -0.553,0.743c-0.224,0.202 -0.488,0.361 -0.772,0.464c-0.257,0.093 -0.529,0.14 -0.802,0.142l-0.005,0l-2.533,0l0,0.007l-0.8,-0.8l0.795,-0.796l0,-0.011l2.535,0c0.021,-0.001 0.041,-0.001 0.062,-0.003c0.019,-0.001 0.038,-0.003 0.057,-0.006c0.085,-0.014 0.168,-0.04 0.244,-0.082c0.154,-0.082 0.277,-0.219 0.342,-0.381c0.022,-0.056 0.037,-0.115 0.045,-0.174c0.004,-0.033 0.006,-0.066 0.006,-0.099Z" style="fill:#fff;"/><path d="M4.206,4.209l0,0.696l-0.8,0.801l-0.801,-0.801l0.001,-0.696c0,-0.14 0.012,-0.281 0.037,-0.419c0.036,-0.199 0.098,-0.394 0.185,-0.577c0.132,-0.281 0.321,-0.534 0.552,-0.742c0.224,-0.203 0.488,-0.361 0.772,-0.465c0.257,-0.093 0.529,-0.14 0.802,-0.141l0.006,0l2.533,0l0,-0.008l0.8,0.8l-0.796,0.796l0,0.012l-2.535,0c-0.021,0 -0.041,0 -0.062,0.002c-0.019,0.001 -0.038,0.004 -0.057,0.006c-0.085,0.014 -0.168,0.041 -0.244,0.082c-0.154,0.083 -0.277,0.219 -0.342,0.381c-0.022,0.056 -0.037,0.115 -0.045,0.175c-0.004,0.032 -0.006,0.065 -0.006,0.098Z" style="fill:#fff;"/></svg>