<?xml version="1.0" encoding="UTF-8" standalone="no"?><!DOCTYPE svg PUBLIC "-//W3C//DTD SVG 1.1//EN" "http://www.w3.org/Graphics/SVG/1.1/DTD/svg11.dtd"><svg width="100%" height="100%" viewBox="0 0 10 10" version="1.1" xmlns="http://www.w3.org/2000/svg" xmlns:xlink="http://www.w3.org/1999/xlink" xml:space="preserve" style="fill-rule:evenodd;clip-rule:evenodd;stroke-linejoin:round;stroke-miterlimit:1.41421;"><path d="M9.921,8.532c0,0.767 -0.622,1.389 -1.389,1.389l-7.143,0c-0.767,0 -1.389,-0.622 -1.389,-1.389l0,-7.143c0,-0.767 0.622,-1.389 1.389,-1.389l7.143,0c0.767,0 1.389,0.622 1.389,1.389l0,7.143Z" style="fill:#f58432;"/><path d="M7.011,7.905l1.226,-1.029l-1.3,-1.672l0,-0.007c-0.123,-0.137 -0.126,-0.336 0,-0.478l0,-0.007l0.983,-1.332l0,-1.124l-1.153,0l-1.242,1.664c-0.018,0.023 -0.037,0.047 -0.054,0.07l-0.007,0.009l0,0c-0.05,0.069 -0.094,0.141 -0.133,0.217c-0.072,0.14 -0.124,0.29 -0.153,0.445c-0.037,0.196 -0.037,0.398 0,0.594c0.029,0.155 0.081,0.305 0.153,0.445c0.039,0.076 0.083,0.148 0.133,0.217l0,0l0.007,0.009c0.017,0.024 0.036,0.047 0.054,0.07l1.486,1.909Z" style="fill:#fff;"/><path d="M2.91,2.016l-1.226,1.03l1.3,1.671l0,0.007c0.124,0.137 0.126,0.337 0,0.478l0,0.008l-0.983,1.332l0,1.123l1.153,0l1.242,-1.664c0.019,-0.023 0.037,-0.046 0.055,-0.07l0.006,-0.009l0,0c0.05,-0.069 0.095,-0.141 0.134,-0.217c0.072,-0.14 0.124,-0.29 0.153,-0.445c0.036,-0.196 0.036,-0.398 0,-0.594c-0.029,-0.155 -0.081,-0.305 -0.153,-0.445c-0.039,-0.075 -0.084,-0.148 -0.134,-0.217l0,0l-0.007,-0.009c-0.017,-0.023 -0.035,-0.047 -0.054,-0.07l-1.486,-1.909Z" style="fill:#fff;"/></svg>