<?xml version="1.0" encoding="UTF-8" standalone="no"?><!DOCTYPE svg PUBLIC "-//W3C//DTD SVG 1.1//EN" "http://www.w3.org/Graphics/SVG/1.1/DTD/svg11.dtd"><svg width="100%" height="100%" viewBox="0 0 10 10" version="1.1" xmlns="http://www.w3.org/2000/svg" xmlns:xlink="http://www.w3.org/1999/xlink" xml:space="preserve" style="fill-rule:evenodd;clip-rule:evenodd;stroke-linejoin:round;stroke-miterlimit:1.41421;"><path d="M9.921,1.389c0,-0.767 -0.622,-1.389 -1.389,-1.389l-7.143,0c-0.767,0 -1.389,0.622 -1.389,1.389l0,7.143c0,0.767 0.622,1.389 1.389,1.389l7.143,0c0.767,0 1.389,-0.622 1.389,-1.389l0,-7.143Z" style="fill:#98892c;"/><path d="M4.055,2.944c-0.005,0.276 -0.002,2.712 0.008,2.988c0.003,0.048 0.013,0.095 0.032,0.139c0.043,0.102 0.127,0.184 0.229,0.224c0.042,0.016 0.085,0.025 0.13,0.028c0.528,0.021 0.583,0.021 1.111,0c0.045,-0.003 0.088,-0.012 0.13,-0.028c0.096,-0.038 0.176,-0.112 0.221,-0.205c0.018,-0.037 0.029,-0.076 0.036,-0.116c0.002,-0.014 0,0.023 0.004,-0.042c0.045,-1.201 0.001,-2.404 0.001,-3.606l0.8,-0.801l0.801,0.801l0,4.344c-0.001,0.154 -0.024,0.283 -0.071,0.417c-0.084,0.238 -0.241,0.448 -0.445,0.597c-0.099,0.072 -0.207,0.129 -0.322,0.17c-0.124,0.043 -0.253,0.066 -0.384,0.07c-1.036,0.018 -1.6,0.008 -2.637,0c-0.136,-0.002 -0.271,-0.025 -0.4,-0.07c-0.133,-0.048 -0.259,-0.118 -0.369,-0.207c-0.181,-0.145 -0.32,-0.341 -0.397,-0.56c-0.048,-0.134 -0.07,-0.275 -0.071,-0.417c0,-0.522 -0.006,-3.204 -0.007,-3.726l1.6,0Z" style="fill:#fff;"/></svg>