<?xml version="1.0" encoding="UTF-8" standalone="no"?><!DOCTYPE svg PUBLIC "-//W3C//DTD SVG 1.1//EN" "http://www.w3.org/Graphics/SVG/1.1/DTD/svg11.dtd"><svg width="100%" height="100%" viewBox="0 0 10 10" version="1.1" xmlns="http://www.w3.org/2000/svg" xmlns:xlink="http://www.w3.org/1999/xlink" xml:space="preserve" style="fill-rule:evenodd;clip-rule:evenodd;stroke-linejoin:round;stroke-miterlimit:1.41421;"><path d="M9.921,1.389c0,-0.767 -0.622,-1.389 -1.389,-1.389l-7.143,0c-0.767,0 -1.389,0.622 -1.389,1.389l0,7.143c0,0.767 0.622,1.389 1.389,1.389l7.143,0c0.767,0 1.389,-0.622 1.389,-1.389l0,-7.143Z" style="fill:#004990;"/><path d="M2.46,6.705c-0.01,-0.504 -0.005,-3.827 -0.005,-4.564l0.8,-0.801l0.801,0.801l0.004,3.772c0,0.042 0.006,0.083 0.018,0.123c0.036,0.115 0.123,0.21 0.234,0.257c0.045,0.019 0.091,0.029 0.14,0.032c0.367,0.014 0.736,0.014 1.104,0c0.048,-0.003 0.095,-0.013 0.139,-0.032c0.102,-0.042 0.184,-0.126 0.224,-0.229c0.016,-0.041 0.025,-0.085 0.028,-0.13c0.021,-0.527 0.021,-0.577 0,-1.104c-0.003,-0.045 -0.012,-0.089 -0.028,-0.13c-0.038,-0.096 -0.112,-0.176 -0.205,-0.221c-0.037,-0.018 -0.076,-0.029 -0.116,-0.036c-0.014,-0.002 -0.042,-0.004 -0.042,-0.004c0,0 -0.289,-0.001 -0.404,-0.001l0,-1.601l1.142,0c0.142,0.001 0.283,0.024 0.417,0.071c0.238,0.084 0.448,0.241 0.597,0.445c0.072,0.099 0.129,0.207 0.17,0.322c0.043,0.123 0.066,0.253 0.07,0.384c0.018,1.036 0.008,1.593 0,2.63c-0.002,0.136 -0.025,0.272 -0.07,0.4c-0.048,0.134 -0.118,0.259 -0.207,0.369c-0.145,0.181 -0.341,0.321 -0.56,0.398c-0.134,0.047 -0.275,0.07 -0.417,0.071c-0.871,0 -1.742,0.016 -2.613,-0.001c-0.136,-0.004 -0.271,-0.029 -0.399,-0.075c-0.142,-0.053 -0.275,-0.131 -0.389,-0.23c-0.157,-0.136 -0.279,-0.309 -0.352,-0.503c-0.051,-0.132 -0.077,-0.272 -0.081,-0.413Z" style="fill:#fff;"/></svg>