<?xml version="1.0" encoding="UTF-8" standalone="no"?><!DOCTYPE svg PUBLIC "-//W3C//DTD SVG 1.1//EN" "http://www.w3.org/Graphics/SVG/1.1/DTD/svg11.dtd"><svg width="100%" height="100%" viewBox="0 0 10 10" version="1.1" xmlns="http://www.w3.org/2000/svg" xmlns:xlink="http://www.w3.org/1999/xlink" xml:space="preserve" style="fill-rule:evenodd;clip-rule:evenodd;stroke-linejoin:round;stroke-miterlimit:1.41421;"><path d="M8.532,9.921c0.767,0 1.389,-0.622 1.389,-1.389l0,-7.143c0,-0.767 -0.622,-1.389 -1.389,-1.389l-7.143,0c-0.767,0 -1.389,0.622 -1.389,1.389l0,7.143c0,0.767 0.622,1.389 1.389,1.389l7.143,0Z" style="fill:#b41d8e;"/><path d="M7.343,2.455l0,1.599c-0.541,-0.003 -2.632,0 -2.886,0.009c-0.048,0.003 -0.095,0.013 -0.14,0.032c-0.101,0.043 -0.183,0.127 -0.223,0.229c-0.017,0.042 -0.026,0.085 -0.028,0.13c-0.021,0.528 -0.021,0.583 0,1.111c0.002,0.045 0.011,0.088 0.028,0.13c0.037,0.096 0.112,0.176 0.205,0.221c0.037,0.018 0.076,0.029 0.116,0.036c0.014,0.002 -0.023,0 0.042,0.004c1.201,0.045 1.684,0.001 2.886,0.001l0.8,0.8l-0.8,0.801l-3.625,0c-0.153,-0.001 -0.282,-0.024 -0.416,-0.071c-0.239,-0.084 -0.449,-0.241 -0.598,-0.445c-0.071,-0.099 -0.128,-0.207 -0.169,-0.322c-0.044,-0.124 -0.066,-0.253 -0.07,-0.384c-0.018,-1.036 -0.008,-1.6 -0.001,-2.637c0.003,-0.136 0.026,-0.271 0.071,-0.4c0.047,-0.133 0.117,-0.259 0.206,-0.369c0.146,-0.181 0.342,-0.32 0.561,-0.397c0.134,-0.048 0.274,-0.07 0.416,-0.071c0.494,0 2.923,-0.006 3.625,-0.007Z" style="fill:#fff;"/></svg>