<?xml version="1.0" encoding="UTF-8" standalone="no"?><!DOCTYPE svg PUBLIC "-//W3C//DTD SVG 1.1//EN" "http://www.w3.org/Graphics/SVG/1.1/DTD/svg11.dtd"><svg width="100%" height="100%" viewBox="0 0 10 10" version="1.1" xmlns="http://www.w3.org/2000/svg" xmlns:xlink="http://www.w3.org/1999/xlink" xml:space="preserve" style="fill-rule:evenodd;clip-rule:evenodd;stroke-linejoin:round;stroke-miterlimit:1.41421;"><path d="M9.921,1.389c0,-0.767 -0.622,-1.389 -1.389,-1.389l-7.143,0c-0.767,0 -1.389,0.622 -1.389,1.389l0,7.143c0,0.767 0.622,1.389 1.389,1.389l7.143,0c0.767,0 1.389,-0.622 1.389,-1.389l0,-7.143Z" style="fill:#22a285;"/><path d="M5.224,4.692c0.003,-0.001 0.005,-0.002 0.007,-0.002c0.02,-0.002 0.04,-0.008 0.058,-0.017c0.039,-0.018 0.071,-0.048 0.091,-0.086c0.007,-0.014 0.011,-0.028 0.016,-0.042l0.001,0l0.429,-1.178l-0.001,-0.001c0.024,-0.065 0.451,-1.24 0.491,-1.35l1.026,-0.478l0.478,1.026l-0.926,2.548l-0.001,0c-0.017,0.047 -0.036,0.093 -0.057,0.139c-0.065,0.139 -0.147,0.27 -0.245,0.388c-0.144,0.175 -0.322,0.322 -0.521,0.432c-0.18,0.098 -0.377,0.166 -0.58,0.198c-0.095,0.015 -0.19,0.022 -0.286,0.022c-0.162,0.001 -0.324,-0.02 -0.48,-0.063c-0.368,-0.101 -0.7,-0.321 -0.936,-0.621c-0.095,-0.121 -0.175,-0.254 -0.236,-0.395c-0.014,-0.033 -0.027,-0.066 -0.04,-0.1l0,0l-0.298,-0.819l-0.003,0.001l-0.486,-1.335l0.479,-1.026l1.028,0.48l0.776,2.131l0.001,-0.001c0.001,0.004 0.003,0.009 0.004,0.013c0.007,0.022 0.018,0.043 0.032,0.061c0.038,0.048 0.096,0.075 0.156,0.074c0.001,0 0.009,0 0.023,0.001Z" style="fill:#fff;"/><path d="M6.577,6.159l-0.054,0.2c-0.042,0.219 -0.115,0.431 -0.217,0.628c-0.113,0.217 -0.259,0.417 -0.433,0.589c-0.228,0.226 -0.502,0.404 -0.801,0.521c-0.181,0.071 -0.37,0.119 -0.562,0.143c-0.097,0.012 -0.195,0.018 -0.293,0.019l-0.005,0l-1.322,0l-0.792,-0.793l0.807,-0.807c0,0 2.036,0.001 2.174,-0.002c0.233,-0.004 0.46,-0.014 0.681,-0.075c0.243,-0.066 0.474,-0.175 0.681,-0.319c0.046,-0.033 0.092,-0.067 0.136,-0.104Z" style="fill:#fff;"/></svg>