<?xml version="1.0" encoding="UTF-8" standalone="no"?><!DOCTYPE svg PUBLIC "-//W3C//DTD SVG 1.1//EN" "http://www.w3.org/Graphics/SVG/1.1/DTD/svg11.dtd"><svg width="100%" height="100%" viewBox="0 0 10 10" version="1.1" xmlns="http://www.w3.org/2000/svg" xmlns:xlink="http://www.w3.org/1999/xlink" xml:space="preserve" style="fill-rule:evenodd;clip-rule:evenodd;stroke-linejoin:round;stroke-miterlimit:1.41421;"><path d="M9.921,1.389c0,-0.767 -0.622,-1.389 -1.389,-1.389l-7.143,0c-0.767,0 -1.389,0.622 -1.389,1.389l0,7.143c0,0.767 0.622,1.389 1.389,1.389l7.143,0c0.767,0 1.389,-0.622 1.389,-1.389l0,-7.143Z" style="fill:#ca5d27;"/><path d="M4.616,7.509l-1.268,0c-0.142,-0.001 -0.283,-0.024 -0.417,-0.071c-0.238,-0.084 -0.448,-0.241 -0.597,-0.445c-0.072,-0.098 -0.129,-0.207 -0.17,-0.322c-0.043,-0.123 -0.066,-0.253 -0.07,-0.384c-0.018,-1.036 -0.008,-1.833 0,-2.87c0.002,-0.136 0.025,-0.271 0.07,-0.4c0.048,-0.134 0.118,-0.259 0.207,-0.369c0.145,-0.181 0.341,-0.32 0.56,-0.397c0.134,-0.048 0.275,-0.071 0.417,-0.071c0.871,0 1.742,-0.017 2.613,0c0.136,0.004 0.271,0.029 0.399,0.076c0.142,0.052 0.275,0.13 0.389,0.229c0.157,0.136 0.279,0.31 0.352,0.503c0.051,0.132 0.077,0.272 0.081,0.413c0.01,0.504 0.001,1.009 0.001,1.513c0,0 -0.004,0.766 0.006,1.024c0.003,0.044 0.012,0.088 0.028,0.13c0.038,0.096 0.112,0.176 0.205,0.22c0.037,0.018 0.076,0.03 0.116,0.036c0.014,0.002 0.042,0.005 0.042,0.005c0,0 0.168,0 0.246,0l0.801,0.801l-0.801,0.8l-0.984,0c-0.142,-0.001 -0.283,-0.024 -0.417,-0.071c-0.238,-0.084 -0.448,-0.241 -0.597,-0.445c-0.072,-0.098 -0.129,-0.207 -0.169,-0.321c-0.044,-0.124 -0.067,-0.254 -0.071,-0.385c0,-0.213 -0.006,-1.794 -0.006,-1.794l0,-0.721c0,-0.042 -0.006,-0.083 -0.018,-0.122c-0.036,-0.116 -0.123,-0.211 -0.234,-0.258c-0.045,-0.019 -0.091,-0.029 -0.14,-0.032c-0.367,-0.014 -0.736,-0.014 -1.104,0c-0.048,0.003 -0.095,0.013 -0.139,0.032c-0.102,0.043 -0.184,0.127 -0.224,0.229c-0.016,0.042 -0.025,0.085 -0.028,0.13c-0.021,0.528 -0.021,0.817 0,1.344c0.003,0.045 0.012,0.089 0.028,0.131c0.038,0.096 0.112,0.176 0.205,0.22c0.037,0.018 0.076,0.03 0.116,0.036c0.014,0.002 0.042,0.005 0.042,0.005c0,0 0.075,0 0.164,0l0,0c0.087,0 0.22,0 0.366,0l0,1.601Z" style="fill:#fff;"/></svg>