<?xml version="1.0" encoding="utf-8"?>
<!-- Generator: Adobe Illustrator 27.8.0, SVG Export Plug-In . SVG Version: 6.00 Build 0)  -->
<svg version="1.1" id="Layer_1" xmlns="http://www.w3.org/2000/svg" x="0px" y="0px"
	 width="140px" height="141px" viewBox="0 0 140 141" style="enable-background:new 0 0 140 141;" xml:space="preserve">
<g>
	<path d="M130.3,23.3H96.7v-8.5C96.7,6.6,90.1,0,81.9,0H58.1c-8.2,0-14.8,6.6-14.8,14.8v8.5H9.7c-2.8,0-5,2.2-5,5s2.2,5,5,5h7.2
		v89.8c0,9.9,8,18,18,18h70.2c9.9,0,18-8,18-18V33.3h7.2c2.8,0,5-2.2,5-5S133.1,23.3,130.3,23.3z M53.3,14.8c0-2.7,2.2-4.8,4.8-4.8
		h23.8c2.7,0,4.8,2.2,4.8,4.8v8.5H53.3V14.8z M113.1,123.2c0,4.4-3.6,8-8,8H34.9c-4.4,0-8-3.6-8-8V33.7h86.2V123.2z"/>
	<path d="M53.8,121.8c2.8,0,5-2.2,5-5V48c0-2.8-2.2-5-5-5s-5,2.2-5,5v68.8C48.8,119.6,51.1,121.8,53.8,121.8z"/>
	<path d="M86.2,121.8c2.8,0,5-2.2,5-5V48c0-2.8-2.2-5-5-5s-5,2.2-5,5v68.8C81.2,119.6,83.4,121.8,86.2,121.8z"/>
</g>
</svg>
